<?xml version="1.0" standalone="no"?>
<!DOCTYPE svg PUBLIC "-//W3C//DTD SVG 20010904//EN"
 "http://www.w3.org/TR/2001/REC-SVG-20010904/DTD/svg10.dtd">
<svg version="1.0" xmlns="http://www.w3.org/2000/svg"
 width="260.000000pt" height="260.000000pt" viewBox="0 0 260.000000 260.000000"
 preserveAspectRatio="xMidYMid meet">
<metadata>
Created by potrace 1.11, written by Peter Selinger 2001-2013
</metadata>
<g transform="translate(0.000000,260.000000) scale(0.100000,-0.100000)"
fill="#000000" stroke="none">
<path d="M540 1480 l0 -1120 760 0 760 0 0 1120 0 1120 -760 0 -760 0 0 -1120z
m190 75 l0 -235 110 0 110 0 0 -25 0 -25 -140 0 -140 0 0 260 0 260 30 0 30 0
0 -235z m573 -73 c-21 -38 -135 -240 -253 -450 l-215 -382 -33 0 -34 0 24 43
c13 23 127 225 253 450 l229 407 34 0 34 0 -39 -68z m-8 -567 c31 -58 60 -105
64 -105 4 0 33 47 66 105 57 100 62 105 92 105 18 0 33 -2 33 -4 0 -3 -34 -59
-75 -124 -41 -66 -75 -124 -75 -129 0 -6 34 -66 75 -134 41 -68 75 -127 75
-132 0 -4 -14 -7 -32 -5 -29 3 -37 12 -88 101 -31 53 -61 102 -67 108 -8 8
-28 -19 -73 -100 -60 -109 -62 -111 -97 -111 -34 0 -35 1 -21 23 8 12 45 72
82 134 l68 111 -65 109 c-97 163 -94 153 -54 153 33 0 36 -4 92 -105z m415
-135 l0 -240 110 0 110 0 0 -25 0 -25 -140 0 -140 0 0 265 0 265 30 0 30 0 0
-240z"/>
</g>
</svg>
